<svg id="Слой_1" data-name="Слой 1" xmlns="http://www.w3.org/2000/svg" viewBox="0 0 489.22 114.42"><defs><style>.cls-1,.cls-3{fill:#efefef;}.cls-1,.cls-2{fill-rule:evenodd;}.cls-2{fill:#01fe65;}</style></defs><title>logo</title><path class="cls-1" d="M523.63,445.72v-.18l-.35.15a3.35,3.35,0,0,0-3.39-2.45,15.06,15.06,0,0,0-5.4,1.31l-.72.37a23.11,23.11,0,0,1-10.35,2,26.2,26.2,0,0,1-12.63-2.89,26.62,26.62,0,0,1-8.93-7.76,35,35,0,0,1-5.36-10.9,43.34,43.34,0,0,1,0-24.63,35,35,0,0,1,5.36-10.9,26.66,26.66,0,0,1,8.93-7.76,26.2,26.2,0,0,1,12.63-2.89,23.11,23.11,0,0,1,10.35,2l.58.3a15.39,15.39,0,0,0,5.54,1.37,3.35,3.35,0,0,0,3.39-2.45l.35.09v-.11h18.73v65.27Zm-1.29-41.5a16.75,16.75,0,0,0-5.05-7.08,14.24,14.24,0,0,0-16.88,0,16.74,16.74,0,0,0-5.05,7.08,24.47,24.47,0,0,0,0,17.73,16.73,16.73,0,0,0,5.05,7.08,14.24,14.24,0,0,0,16.88,0,16.74,16.74,0,0,0,5.05-7.08,24.47,24.47,0,0,0,0-17.73ZM447,444.67a17.35,17.35,0,0,1-6.9-5.79,19.94,19.94,0,0,1-3.08-7.45,39.61,39.61,0,0,1-.74-7.27V395.35l-11.09-14.9h11.09V364.32H455v11.14c.22,2.94,1.7,4.79,5.13,5h8.79v14.9h-9c-3.31.26-4.74,2.1-5,5v23.34a8.63,8.63,0,0,0,2.16,6.28q2.15,2.22,7.21,2.22a31.81,31.81,0,0,0,5.91-.74v14.41A69.72,69.72,0,0,1,459.2,447Q451.56,447,447,444.67Zm-34.14-2.46q-7.64,4.74-18.6,4.74t-18.6-4.74A31.61,31.61,0,0,1,364,429.77a36.77,36.77,0,0,1,0-33.37A31.63,31.63,0,0,1,375.66,384q7.64-4.74,18.6-4.74t18.6,4.74a31.66,31.66,0,0,1,11.64,12.44,36.77,36.77,0,0,1,0,33.37A31.63,31.63,0,0,1,412.86,442.21Zm-5.05-38.36a17,17,0,0,0-5.24-6.77,13.31,13.31,0,0,0-8.32-2.59,13.56,13.56,0,0,0-8.38,2.59,16.24,16.24,0,0,0-5.24,6.77,24.61,24.61,0,0,0,0,18.41,16.17,16.17,0,0,0,5.24,6.83,13.56,13.56,0,0,0,8.38,2.59,13.31,13.31,0,0,0,8.32-2.59,16.87,16.87,0,0,0,5.24-6.83,23.85,23.85,0,0,0,0-18.41Zm-42.07,41.87H343.7l-18.43-24.63a2.4,2.4,0,0,0-.91-.21,2.37,2.37,0,0,0-2.59,1.56v23.27H303V380.29h18.73v18.41a2.4,2.4,0,0,0,2.74,2.12c1.3,0,2.87-1.51,3.54-2.23l15.27-18.15h21.31L339,410.25Zm-91.16-.14-.26.11a3.35,3.35,0,0,0-3.39-2.45,16,16,0,0,0-5.8,1.47l-.42.22a23.11,23.11,0,0,1-10.35,2,26.2,26.2,0,0,1-12.63-2.89,26.62,26.62,0,0,1-8.93-7.76,35,35,0,0,1-5.36-10.9,43.34,43.34,0,0,1,0-24.63,35,35,0,0,1,5.36-10.9,26.66,26.66,0,0,1,8.93-7.76,26.2,26.2,0,0,1,12.63-2.89,23.11,23.11,0,0,1,10.35,2l.27.14a16.42,16.42,0,0,0,5.94,1.53,3.35,3.35,0,0,0,3.39-2.45l.26.07v-.09h18.73v65.27H274.58Zm-1.29-41.36a16.75,16.75,0,0,0-5.05-7.08,14.24,14.24,0,0,0-16.88,0,16.74,16.74,0,0,0-5.05,7.08,24.47,24.47,0,0,0,0,17.73,16.73,16.73,0,0,0,5.05,7.08,14.24,14.24,0,0,0,16.88,0,16.74,16.74,0,0,0,5.05-7.08,24.47,24.47,0,0,0,0-17.73Zm-74.1,41.16a3.34,3.34,0,0,0-3.28-2.14c-3,0-5.87,1.63-8.16,2.37A25.35,25.35,0,0,1,179,447a26.2,26.2,0,0,1-12.63-2.89,26.62,26.62,0,0,1-8.93-7.76,35,35,0,0,1-5.36-10.9,43.34,43.34,0,0,1,0-24.63,35,35,0,0,1,5.36-10.9,26.66,26.66,0,0,1,8.93-7.76A26.2,26.2,0,0,1,179,379.22a25.79,25.79,0,0,1,8.43,1.23l.08,0c2.33.71,5.34,2.45,8.41,2.45a3.34,3.34,0,0,0,3.28-2.14V364.37h18.73v81.35H199.19Zm-1.29-41.16a16.75,16.75,0,0,0-5.05-7.08,14.24,14.24,0,0,0-16.88,0,16.74,16.74,0,0,0-5.05,7.08,24.47,24.47,0,0,0,0,17.73A16.72,16.72,0,0,0,176,429a14.24,14.24,0,0,0,16.88,0,16.74,16.74,0,0,0,5.05-7.08,24.47,24.47,0,0,0,0-17.73Z" transform="translate(-53.2 -364.32)"/><path class="cls-2" d="M88.19,461.15,88,412.84h.19l-.19-.13.12-48.31,48.21,48.19V413Zm-35-14.42,0-68.11,34.29,34.07Z" transform="translate(-53.2 -364.32)"/><path class="cls-3" d="M306.71,463.31a4.85,4.85,0,0,0-1.62,1.37,5.92,5.92,0,0,0-1,1.92,7.63,7.63,0,0,0,0,4.34,5.91,5.91,0,0,0,1,1.92,4.67,4.67,0,0,0,3.88,1.88,4.2,4.2,0,0,0,1.81-.35,3.91,3.91,0,0,0,1.16-.8,4.77,4.77,0,0,0,.63-.78h.13v1.71h2.47V463h-2.47v1.71h-.13a4.77,4.77,0,0,0-.63-.78,3.92,3.92,0,0,0-1.16-.8,4.2,4.2,0,0,0-1.81-.35A4.8,4.8,0,0,0,306.71,463.31Zm4.58,2.13a3.58,3.58,0,0,1,1.06,1.46,5,5,0,0,1,0,3.73,3.57,3.57,0,0,1-1.06,1.46,2.71,2.71,0,0,1-1.77.57,2.75,2.75,0,0,1-1.78-.57,3.53,3.53,0,0,1-1.07-1.46,5,5,0,0,1,0-3.73,3.53,3.53,0,0,1,1.07-1.46,2.75,2.75,0,0,1,1.78-.57A2.71,2.71,0,0,1,311.29,465.43Z" transform="translate(-53.2 -364.32)"/><path class="cls-3" d="M329.77,478.74V463h-2.47v1.71h-.13a4.77,4.77,0,0,0-.63-.78,3.92,3.92,0,0,0-1.16-.8,4.2,4.2,0,0,0-1.81-.35,4.8,4.8,0,0,0-2.27.51,4.85,4.85,0,0,0-1.62,1.37,5.92,5.92,0,0,0-1,1.92,7.63,7.63,0,0,0,0,4.34,5.91,5.91,0,0,0,1,1.92,4.67,4.67,0,0,0,3.89,1.88,4.2,4.2,0,0,0,1.81-.35,3.91,3.91,0,0,0,1.16-.8,4.77,4.77,0,0,0,.63-.78h.13v5.94Zm-7.44-6.65a3.53,3.53,0,0,1-1.07-1.46,5,5,0,0,1,0-3.73,3.53,3.53,0,0,1,1.07-1.46,2.75,2.75,0,0,1,1.78-.57,2.71,2.71,0,0,1,1.77.57,3.58,3.58,0,0,1,1.06,1.46,5,5,0,0,1,0,3.73,3.57,3.57,0,0,1-1.06,1.46,2.71,2.71,0,0,1-1.77.57A2.75,2.75,0,0,1,322.32,472.09Z" transform="translate(-53.2 -364.32)"/><path class="cls-3" d="M338.72,474.4a3.21,3.21,0,0,0,1-.77,4.57,4.57,0,0,0,.55-.77h.13v1.65h2.47V463h-2.47v6.38a4.87,4.87,0,0,1-.25,1.55,2.68,2.68,0,0,1-.81,1.23,2.24,2.24,0,0,1-1.5.48,2,2,0,0,1-1.51-.57,2.23,2.23,0,0,1-.55-1.62V463h-2.47v7.74a4.15,4.15,0,0,0,1,2.88,3.46,3.46,0,0,0,2.71,1.08A3.81,3.81,0,0,0,338.72,474.4Z" transform="translate(-53.2 -364.32)"/><path class="cls-3" d="M349,463.31a4.85,4.85,0,0,0-1.62,1.37,5.92,5.92,0,0,0-1,1.92,7.63,7.63,0,0,0,0,4.34,5.91,5.91,0,0,0,1,1.92,4.67,4.67,0,0,0,3.88,1.88,4.2,4.2,0,0,0,1.81-.35,3.91,3.91,0,0,0,1.16-.8,4.77,4.77,0,0,0,.63-.78H355v1.71h2.47V463H355v1.71h-.13a4.77,4.77,0,0,0-.63-.78,3.92,3.92,0,0,0-1.16-.8,4.2,4.2,0,0,0-1.81-.35A4.8,4.8,0,0,0,349,463.31Zm4.58,2.13a3.58,3.58,0,0,1,1.06,1.46,5,5,0,0,1,0,3.73,3.57,3.57,0,0,1-1.06,1.46,2.71,2.71,0,0,1-1.77.57,2.75,2.75,0,0,1-1.78-.57,3.53,3.53,0,0,1-1.07-1.46,5,5,0,0,1,0-3.73,3.53,3.53,0,0,1,1.07-1.46,2.75,2.75,0,0,1,1.78-.57A2.71,2.71,0,0,1,353.57,465.43Z" transform="translate(-53.2 -364.32)"/><path class="cls-3" d="M368.82,474.3a4.41,4.41,0,0,0,1.51-1.05,4.93,4.93,0,0,0,.85-1.26,6.35,6.35,0,0,0,.43-1.5h-2.34a4.21,4.21,0,0,1-.48,1.08,2.45,2.45,0,0,1-.84.76,2.93,2.93,0,0,1-1.49.33,3,3,0,0,1-1.84-.55,3.46,3.46,0,0,1-1.12-1.44,5,5,0,0,1,0-3.82,3.46,3.46,0,0,1,1.12-1.44,3,3,0,0,1,1.84-.55,2.93,2.93,0,0,1,1.49.33,2.45,2.45,0,0,1,.84.76,4.22,4.22,0,0,1,.48,1.08h2.34a6.36,6.36,0,0,0-.43-1.5,4.94,4.94,0,0,0-.85-1.26,4.42,4.42,0,0,0-1.51-1.05,5.83,5.83,0,0,0-2.38-.42,5.92,5.92,0,0,0-2.54.51,5.18,5.18,0,0,0-1.8,1.37,5.91,5.91,0,0,0-1.07,1.92,6.75,6.75,0,0,0,0,4.34,5.9,5.9,0,0,0,1.07,1.92,5.17,5.17,0,0,0,1.8,1.37,5.92,5.92,0,0,0,2.54.51A5.83,5.83,0,0,0,368.82,474.3Z" transform="translate(-53.2 -364.32)"/><path class="cls-3" d="M380.15,474.4a3.21,3.21,0,0,0,1-.77,4.56,4.56,0,0,0,.55-.77h.13v1.65h2.47V463h-2.47v6.38a4.87,4.87,0,0,1-.25,1.55,2.68,2.68,0,0,1-.81,1.23,2.24,2.24,0,0,1-1.5.48,2,2,0,0,1-1.51-.57,2.23,2.23,0,0,1-.55-1.62V463h-2.47v7.74a4.15,4.15,0,0,0,1,2.88,3.46,3.46,0,0,0,2.71,1.08A3.81,3.81,0,0,0,380.15,474.4Z" transform="translate(-53.2 -364.32)"/><path class="cls-3" d="M390.41,474.51V458H388l0,16.48Z" transform="translate(-53.2 -364.32)"/><path class="cls-3" d="M400.8,474.55v-2a8,8,0,0,1-1.24.13q-1.8,0-1.8-1.63v-6h2.69v-2h-2.69v-2.86h-2.47V463h-2v2h2v6.07a4.54,4.54,0,0,0,.36,1.81,2.85,2.85,0,0,0,1.18,1.33,4.21,4.21,0,0,0,2.19.5,11.42,11.42,0,0,0,1.78-.17Z" transform="translate(-53.2 -364.32)"/><path class="cls-3" d="M409.21,474.4a3.21,3.21,0,0,0,1-.77,4.57,4.57,0,0,0,.55-.77h.13v1.65h2.47V463h-2.47v6.38a4.87,4.87,0,0,1-.25,1.55,2.68,2.68,0,0,1-.81,1.23,2.24,2.24,0,0,1-1.5.48,2,2,0,0,1-1.51-.57,2.23,2.23,0,0,1-.55-1.62V463h-2.47v7.74a4.15,4.15,0,0,0,1,2.88,3.46,3.46,0,0,0,2.71,1.08A3.81,3.81,0,0,0,409.21,474.4Z" transform="translate(-53.2 -364.32)"/><path class="cls-3" d="M419.25,474.51v-5.7A4,4,0,0,1,420,466a3,3,0,0,1,2.31-.86,8.43,8.43,0,0,1,1.06.09v-2.39a7,7,0,0,0-1-.09,3.09,3.09,0,0,0-3.08,1.73h-.09V463h-2.47v11.49Z" transform="translate(-53.2 -364.32)"/><path class="cls-3" d="M432.88,474.35a4.29,4.29,0,0,0,1.43-.94,4.92,4.92,0,0,0,.84-1.13,7.12,7.12,0,0,0,.51-1.32h-2.3a4.06,4.06,0,0,1-.52.87,2.51,2.51,0,0,1-.8.62,2.85,2.85,0,0,1-1.32.27,2.74,2.74,0,0,1-2.21-1,3.83,3.83,0,0,1-.89-2.28h8.16v-.67a7.4,7.4,0,0,0-.66-3.31,4.68,4.68,0,0,0-1.82-2,5.19,5.19,0,0,0-2.68-.68,5.53,5.53,0,0,0-2.45.51,4.81,4.81,0,0,0-1.71,1.38,6,6,0,0,0-1,1.93,7.29,7.29,0,0,0-.33,2.15,7.14,7.14,0,0,0,.34,2.17,5.9,5.9,0,0,0,1,1.92,4.93,4.93,0,0,0,1.74,1.37,5.7,5.7,0,0,0,2.51.51A5.53,5.53,0,0,0,432.88,474.35Zm-4.32-8.76a2.76,2.76,0,0,1,2-.79,2.79,2.79,0,0,1,1.9.72,3.07,3.07,0,0,1,.9,2.23h-5.75A3.36,3.36,0,0,1,428.56,465.59Z" transform="translate(-53.2 -364.32)"/><path class="cls-3" d="M451.22,474.24a3.6,3.6,0,0,0,1.49-1.3,3.34,3.34,0,0,0,.51-1.81,2.75,2.75,0,0,0-1-2.29,6.23,6.23,0,0,0-2.54-1.14l-1.54-.35a3.13,3.13,0,0,1-1.12-.44.93.93,0,0,1-.42-.81,1.3,1.3,0,0,1,.43-.93,1.94,1.94,0,0,1,1.41-.43,2.41,2.41,0,0,1,1.14.23,1.9,1.9,0,0,1,.64.52,2.35,2.35,0,0,1,.35.73h2.32a5.83,5.83,0,0,0-.39-1.18,4,4,0,0,0-.72-1,3.77,3.77,0,0,0-1.29-.86,5.26,5.26,0,0,0-2.05-.35,4.49,4.49,0,0,0-3,1,3.13,3.13,0,0,0-1.13,2.47,2.66,2.66,0,0,0,.49,1.66,3.45,3.45,0,0,0,1.28,1,8.44,8.44,0,0,0,1.7.6l1.56.35a3,3,0,0,1,1.17.5,1.07,1.07,0,0,1,.41.89,1.39,1.39,0,0,1-.49,1,2.12,2.12,0,0,1-1.49.46,2.77,2.77,0,0,1-1.32-.27,2.07,2.07,0,0,1-.74-.62,3,3,0,0,1-.39-.89h-2.41a5.61,5.61,0,0,0,.38,1.32,4,4,0,0,0,.77,1.12,4.15,4.15,0,0,0,1.4.93,5.71,5.71,0,0,0,2.25.38A5.25,5.25,0,0,0,451.22,474.24Z" transform="translate(-53.2 -364.32)"/><path class="cls-3" d="M464.75,473.88a5.44,5.44,0,0,0,2-2.21,6.71,6.71,0,0,0,0-5.81,5.44,5.44,0,0,0-2-2.21,6.36,6.36,0,0,0-6.34,0,5.43,5.43,0,0,0-2,2.21,6.71,6.71,0,0,0,0,5.81,5.43,5.43,0,0,0,2,2.21,6.36,6.36,0,0,0,6.34,0Zm-5-1.8a3.3,3.3,0,0,1-1.11-1.43,5,5,0,0,1,0-3.78,3.32,3.32,0,0,1,1.11-1.42,3,3,0,0,1,1.8-.54,2.91,2.91,0,0,1,1.79.54,3.44,3.44,0,0,1,1.11,1.42,4.9,4.9,0,0,1,0,3.78,3.42,3.42,0,0,1-1.11,1.43,2.91,2.91,0,0,1-1.79.54A3,3,0,0,1,459.79,472.08Z" transform="translate(-53.2 -364.32)"/><path class="cls-3" d="M473.18,474.51V458h-2.45l0,16.48Z" transform="translate(-53.2 -364.32)"/><path class="cls-3" d="M482.14,474.4a3.21,3.21,0,0,0,1-.77,4.56,4.56,0,0,0,.55-.77h.13v1.65h2.47V463h-2.47v6.38a4.87,4.87,0,0,1-.25,1.55,2.68,2.68,0,0,1-.81,1.23,2.24,2.24,0,0,1-1.5.48,2,2,0,0,1-1.51-.57,2.23,2.23,0,0,1-.55-1.62V463h-2.47v7.74a4.15,4.15,0,0,0,1,2.88,3.46,3.46,0,0,0,2.71,1.08A3.81,3.81,0,0,0,482.14,474.4Z" transform="translate(-53.2 -364.32)"/><path class="cls-3" d="M496.52,474.55v-2a8,8,0,0,1-1.24.13q-1.8,0-1.8-1.63v-6h2.69v-2h-2.69v-2.86H491V463h-2v2h2v6.07a4.54,4.54,0,0,0,.36,1.81,2.85,2.85,0,0,0,1.18,1.33,4.21,4.21,0,0,0,2.19.5,11.42,11.42,0,0,0,1.78-.17Z" transform="translate(-53.2 -364.32)"/><path class="cls-3" d="M502.21,460.6a1.52,1.52,0,0,0,0-2.15,1.52,1.52,0,0,0-1.12-.44,1.52,1.52,0,0,0-1.11,2.58,1.46,1.46,0,0,0,1.11.46A1.52,1.52,0,0,0,502.21,460.6Zm.14,13.91V463h-2.47v11.49Z" transform="translate(-53.2 -364.32)"/><path class="cls-3" d="M514.78,473.88a5.44,5.44,0,0,0,2-2.21,6.71,6.71,0,0,0,0-5.81,5.44,5.44,0,0,0-2-2.21,6.36,6.36,0,0,0-6.34,0,5.44,5.44,0,0,0-2,2.21,6.71,6.71,0,0,0,0,5.81,5.43,5.43,0,0,0,2,2.21,6.36,6.36,0,0,0,6.34,0Zm-5-1.8a3.3,3.3,0,0,1-1.11-1.43,5,5,0,0,1,0-3.78,3.32,3.32,0,0,1,1.11-1.42,3,3,0,0,1,1.8-.54,2.91,2.91,0,0,1,1.79.54,3.44,3.44,0,0,1,1.11,1.42,4.9,4.9,0,0,1,0,3.78,3.42,3.42,0,0,1-1.11,1.43,2.91,2.91,0,0,1-1.79.54A3,3,0,0,1,509.82,472.08Z" transform="translate(-53.2 -364.32)"/><path class="cls-3" d="M523,474.51V468a4.31,4.31,0,0,1,.26-1.51,2.6,2.6,0,0,1,.81-1.15,2.23,2.23,0,0,1,1.44-.44,2.06,2.06,0,0,1,1.7.72,2.72,2.72,0,0,1,.58,1.76v7.16h2.47v-7.42a5.12,5.12,0,0,0-.44-2.15,3.69,3.69,0,0,0-1.31-1.56,3.76,3.76,0,0,0-2.15-.59,3.61,3.61,0,0,0-1.68.35,3.32,3.32,0,0,0-1,.79,4.18,4.18,0,0,0-.52.75H523V463h-2.47v11.49Z" transform="translate(-53.2 -364.32)"/><path class="cls-3" d="M540.42,474.24a3.6,3.6,0,0,0,1.49-1.3,3.34,3.34,0,0,0,.51-1.81,2.75,2.75,0,0,0-1-2.29,6.23,6.23,0,0,0-2.54-1.14l-1.54-.35a3.13,3.13,0,0,1-1.12-.44.93.93,0,0,1-.42-.81,1.3,1.3,0,0,1,.43-.93,1.94,1.94,0,0,1,1.41-.43,2.41,2.41,0,0,1,1.14.23,1.9,1.9,0,0,1,.64.52,2.35,2.35,0,0,1,.35.73h2.32a5.83,5.83,0,0,0-.39-1.18,4,4,0,0,0-.72-1,3.77,3.77,0,0,0-1.29-.86,5.26,5.26,0,0,0-2.05-.35,4.49,4.49,0,0,0-3,1,3.13,3.13,0,0,0-1.13,2.47,2.66,2.66,0,0,0,.49,1.66,3.45,3.45,0,0,0,1.28,1,8.44,8.44,0,0,0,1.7.6l1.56.35a3,3,0,0,1,1.17.5,1.07,1.07,0,0,1,.41.89,1.39,1.39,0,0,1-.49,1,2.12,2.12,0,0,1-1.49.46,2.77,2.77,0,0,1-1.32-.27,2.07,2.07,0,0,1-.74-.62,3,3,0,0,1-.39-.89h-2.41a5.61,5.61,0,0,0,.38,1.32,4,4,0,0,0,.77,1.12,4.15,4.15,0,0,0,1.4.93,5.71,5.71,0,0,0,2.25.38A5.25,5.25,0,0,0,540.42,474.24Z" transform="translate(-53.2 -364.32)"/></svg>