<?xml version="1.0" encoding="UTF-8" standalone="no"?>
<!-- Created with Inkscape (http://www.inkscape.org/) -->

<svg
   width="800mm"
   height="800mm"
   viewBox="0 0 800 800"
   version="1.1"
   id="svg5"
   inkscape:version="1.1.2 (0a00cf5339, 2022-02-04)"
   sodipodi:docname="sensor_map.svg"
   xmlns:inkscape="http://www.inkscape.org/namespaces/inkscape"
   xmlns:sodipodi="http://sodipodi.sourceforge.net/DTD/sodipodi-0.dtd"
   xmlns="http://www.w3.org/2000/svg"
   xmlns:svg="http://www.w3.org/2000/svg">
  <sodipodi:namedview
     id="namedview7"
     pagecolor="#ffffff"
     bordercolor="#666666"
     borderopacity="1.0"
     inkscape:pageshadow="2"
     inkscape:pageopacity="0.0"
     inkscape:pagecheckerboard="0"
     inkscape:document-units="mm"
     showgrid="false"
     inkscape:zoom="0.2236245"
     inkscape:cx="1397.4319"
     inkscape:cy="1386.2524"
     inkscape:window-width="1920"
     inkscape:window-height="1003"
     inkscape:window-x="0"
     inkscape:window-y="40"
     inkscape:window-maximized="1"
     inkscape:current-layer="layer1"
     showguides="true"
     inkscape:guide-bbox="true" />
  <defs
     id="defs2">
    <rect
       x="-624.57043"
       y="1796.2753"
       width="341.71358"
       height="330.2762"
       id="rect64130" />
    <rect
       x="-623.25215"
       y="1749.8268"
       width="466.3413"
       height="220.63102"
       id="rect59350" />
    <rect
       x="-432.66155"
       y="1777.4282"
       width="281.97589"
       height="406.03967"
       id="rect54864" />
    <rect
       x="-439.50494"
       y="1778.3999"
       width="8.9435639"
       height="80.009524"
       id="rect50676" />
    <rect
       x="-563.15399"
       y="1699.906"
       width="477.98236"
       height="380.09846"
       id="rect43806" />
    <rect
       x="179.5775"
       y="671.24804"
       width="188.9182"
       height="123.20842"
       id="rect7909" />
    <rect
       x="-624.57043"
       y="1796.2753"
       width="341.71359"
       height="330.27621"
       id="rect64130-0" />
    <rect
       x="-624.57043"
       y="1796.2753"
       width="289.88656"
       height="212.67057"
       id="rect64130-6" />
    <rect
       x="-624.57043"
       y="1796.2753"
       width="341.71359"
       height="330.27621"
       id="rect64130-61" />
    <rect
       x="-624.57043"
       y="1796.2753"
       width="341.71359"
       height="330.27621"
       id="rect64130-61-5" />
    <rect
       x="-624.57043"
       y="1796.2753"
       width="347.53875"
       height="196.91446"
       id="rect64130-61-5-8" />
    <rect
       x="-624.57043"
       y="1796.2753"
       width="347.53876"
       height="196.91446"
       id="rect64130-61-5-8-2" />
    <rect
       x="-624.57043"
       y="1796.2753"
       width="341.71359"
       height="330.27621"
       id="rect64130-61-5-6" />
    <rect
       x="-624.57043"
       y="1796.2753"
       width="341.71359"
       height="330.27621"
       id="rect64130-1" />
    <rect
       x="-624.57043"
       y="1796.2753"
       width="341.71359"
       height="330.27621"
       id="rect64130-61-4" />
    <rect
       x="-624.57043"
       y="1796.2753"
       width="341.71359"
       height="330.27621"
       id="rect64130-1-7" />
    <rect
       x="-624.57043"
       y="1796.2753"
       width="341.71359"
       height="330.27621"
       id="rect64130-1-7-0" />
    <rect
       x="-624.57043"
       y="1796.2753"
       width="289.88657"
       height="212.67056"
       id="rect64130-6-2" />
    <rect
       x="-624.57043"
       y="1796.2753"
       width="341.71359"
       height="330.27621"
       id="rect64130-1-7-03" />
  </defs>
  <g
     inkscape:label="Layer 1"
     inkscape:groupmode="layer"
     id="layer1">
    <path
       style="color:#000000;fill:#5854f2;stroke-width:1.15624;-inkscape-stroke:none"
       d="M 190.75764,48.628733 78.934993,49.458546 V 51.027804 785.60755 H 738.70807 l 0.73846,-88.79433 -545.54118,0 z m -3.8386,3.218627 3.14771,648.1434 545.54119,0 -0.73846,82.44131 H 82.773573 V 52.595011 Z"
       id="path951"
       sodipodi:nodetypes="ccccccccccccccc" />
    <path
       style="color:#000000;fill:#190ff3;stroke-width:1.10188;-inkscape-stroke:none"
       d="m 651.27499,14.392446 0,566.914764 -327.59216,3.17333 0,-542.311472 -77.23487,0.1954 -0.057,634.238072 H 723.2469 V 14.392446 Z m 3.43011,3.173321 h 65.11174 V 673.42922 H 249.82336 l 0.057,-629.067189 70.37015,-0.08551 0,543.377349 334.45459,-3.17333 z"
       id="path953"
       sodipodi:nodetypes="cccccccccccccccccc" />
    <g
       id="path1171"
       transform="matrix(2.0242487,0,0,2.0781095,-222.03927,-89.918321)">
      <path
         style="color:#000000;fill:#1069f0;stroke-width:2.30951;stroke-linecap:round;stroke-linejoin:round;-inkscape-stroke:none"
         d="M 170.9616,107.4901 A 21.07494,20.500181 0 0 1 149.88666,127.99028 21.07494,20.500181 0 0 1 128.81172,107.4901 21.07494,20.500181 0 0 1 149.88666,86.989916 21.07494,20.500181 0 0 1 170.9616,107.4901 Z"
         id="path1341"
         name="Уровень ph"
         mpoint="Точка монтирования 1" />
      <path
         style="color:#000000;fill:#5854f2;stroke-linecap:round;stroke-linejoin:round;-inkscape-stroke:none"
         d="m 149.88672,85.835937 c -12.24641,0 -22.23047,9.690798 -22.23047,21.654293 0,11.9635 9.98406,21.6543 22.23047,21.6543 12.24641,0 22.23047,-9.6908 22.23047,-21.6543 0,-11.963495 -9.98406,-21.654293 -22.23047,-21.654293 z m 0,2.308594 c 11.0323,0 19.91992,8.665349 19.91992,19.345699 0,10.68036 -8.88762,19.34571 -19.91992,19.34571 -11.0323,0 -19.91992,-8.66535 -19.91992,-19.34571 0,-10.68035 8.88762,-19.345699 19.91992,-19.345699 z"
         id="path1343" />
    </g>
    <g
       id="path1171-6"
       transform="matrix(2.0242487,0,0,2.0780161,-223.1223,-218.29586)">
      <path
         style="color:#000000;fill:#1069f0;stroke-width:2.30951;stroke-linecap:round;stroke-linejoin:round;-inkscape-stroke:none"
         d="m 171.50669,266.62845 a 21.07494,20.500181 0 0 1 -21.07494,20.50018 21.07494,20.500181 0 0 1 -21.07494,-20.50018 21.07494,20.500181 0 0 1 21.07494,-20.50018 21.07494,20.500181 0 0 1 21.07494,20.50018 z"
         id="path1347"
         name="Температура"
         mpoint="Точка монтирования 1" />
      <path
         style="color:#000000;fill:#5854f2;stroke-linecap:round;stroke-linejoin:round;-inkscape-stroke:none"
         d="m 150.43164,244.97266 c -12.24641,0 -22.23047,9.69275 -22.23047,21.65625 0,11.96349 9.98406,21.65429 22.23047,21.65429 12.24641,0 22.23047,-9.6908 22.23047,-21.65429 0,-11.9635 -9.98406,-21.65625 -22.23047,-21.65625 z m 0,2.31054 c 11.0323,0 19.91992,8.66535 19.91992,19.34571 0,10.68035 -8.88762,19.3457 -19.91992,19.3457 -11.0323,0 -19.91992,-8.66535 -19.91992,-19.3457 0,-10.68036 8.88762,-19.34571 19.91992,-19.34571 z"
         id="path1349" />
    </g>
    <g
       id="path1171-6-4"
       transform="matrix(2.0243379,0,0,2.0780156,-226.4433,-625.97616)">
      <path
         style="color:#000000;fill:#1069f0;stroke-width:2.30951;stroke-linecap:round;stroke-linejoin:round;-inkscape-stroke:none"
         d="m 171.49144,577.39331 a 21.07494,20.500181 0 0 1 -21.07494,20.50018 21.07494,20.500181 0 0 1 -21.07494,-20.50018 21.07494,20.500181 0 0 1 21.07494,-20.50018 21.07494,20.500181 0 0 1 21.07494,20.50018 z"
         id="path1353"
         name="Углекислый газ"
         mpoint="Точка монтирования 1" />
      <path
         style="color:#000000;fill:#5854f2;stroke-linecap:round;stroke-linejoin:round;-inkscape-stroke:none"
         d="m 150.41602,555.73828 c -12.24642,0 -22.22852,9.6908 -22.22852,21.6543 0,11.9635 9.9821,21.65625 22.22852,21.65625 12.24641,0 22.23046,-9.69275 22.23046,-21.65625 0,-11.9635 -9.98405,-21.6543 -22.23046,-21.6543 z m 0,2.31055 c 11.0323,0 19.91992,8.66339 19.91992,19.34375 0,10.68035 -8.88762,19.3457 -19.91992,19.3457 -11.0323,0 -19.91993,-8.66535 -19.91993,-19.3457 0,-10.68036 8.88763,-19.34375 19.91993,-19.34375 z"
         id="path1355" />
    </g>
    <g
       id="path1171-6-4-0"
       transform="matrix(2.0243375,0,0,2.0781092,-225.33615,-771.45843)">
      <path
         style="color:#000000;fill:#1069f0;stroke-width:2.30951;stroke-linecap:round;stroke-linejoin:round;-inkscape-stroke:none"
         d="m 197.9513,724.12476 a 21.07494,20.500181 0 0 1 -21.07494,20.50018 21.07494,20.500181 0 0 1 -21.07494,-20.50018 21.07494,20.500181 0 0 1 21.07494,-20.50019 21.07494,20.500181 0 0 1 21.07494,20.50019 z"
         id="path1359"
         name="Потенциал"
         mpoit="Точка монтирования 2" />
      <path
         style="color:#000000;fill:#5854f2;stroke-linecap:round;stroke-linejoin:round;-inkscape-stroke:none"
         d="m 176.87695,702.4707 c -12.24641,0 -22.23047,9.6908 -22.23047,21.6543 0,11.9635 9.98406,21.6543 22.23047,21.6543 12.24641,0 22.22852,-9.6908 22.22852,-21.6543 0,-11.9635 -9.9821,-21.6543 -22.22852,-21.6543 z m 0,2.3086 c 11.03231,0 19.91993,8.66534 19.91992,19.3457 0,10.68035 -8.88762,19.3457 -19.91992,19.3457 -11.0323,0 -19.91992,-8.66535 -19.91992,-19.3457 0,-10.68036 8.88762,-19.3457 19.91992,-19.3457 z"
         id="path1361" />
    </g>
    <g
       id="path1171-6-4-0-0"
       transform="matrix(2.0243375,0,0,2.0780156,-539.81873,-772.78925)">
      <path
         style="color:#000000;fill:#1069f0;stroke-width:2.30951;stroke-linecap:round;stroke-linejoin:round;-inkscape-stroke:none"
         d="m 554.67528,727.55121 a 21.07494,20.500181 0 0 1 -21.07494,20.50018 21.07494,20.500181 0 0 1 -21.07494,-20.50018 21.07494,20.500181 0 0 1 21.07494,-20.50018 21.07494,20.500181 0 0 1 21.07494,20.50018 z"
         id="path1365"
         name="Давление"
         mpoint="Точка монтирования 3" />
      <path
         style="color:#000000;fill:#5854f2;stroke-linecap:round;stroke-linejoin:round;-inkscape-stroke:none"
         d="m 533.59961,705.89648 c -12.24641,0 -22.22852,9.6908 -22.22852,21.6543 0,11.9635 9.98211,21.65625 22.22852,21.65625 12.24641,0 22.23047,-9.69275 22.23047,-21.65625 0,-11.9635 -9.98406,-21.6543 -22.23047,-21.6543 z m 0,2.3086 c 11.0323,0 19.92187,8.66535 19.92187,19.3457 0,10.68035 -8.88957,19.3457 -19.92187,19.3457 -11.0323,0 -19.91992,-8.66535 -19.91992,-19.3457 0,-10.68035 8.88762,-19.3457 19.91992,-19.3457 z"
         id="path1367" />
    </g>
    <g
       id="path1171-6-4-0-0-4"
       transform="matrix(2.0242487,0,0,2.0780161,-556.43127,-775.47286)">
      <path
         style="color:#000000;fill:#1069f0;stroke-width:2.30951;stroke-linecap:round;stroke-linejoin:round;-inkscape-stroke:none"
         d="m 626.08654,728.80408 a 21.07494,20.500181 0 0 1 -21.07494,20.50018 21.07494,20.500181 0 0 1 -21.07494,-20.50018 21.07494,20.500181 0 0 1 21.07494,-20.50018 21.07494,20.500181 0 0 1 21.07494,20.50018 z"
         id="path1371"
         name="Освещенность"
         mpoint="Точка монтирования 3" />
      <path
         style="color:#000000;fill:#5854f2;stroke-linecap:round;stroke-linejoin:round;-inkscape-stroke:none"
         d="m 605.01172,707.14844 c -12.24641,0 -22.23047,9.69275 -22.23047,21.65625 0,11.9635 9.98406,21.65429 22.23047,21.65429 12.24641,0 22.23047,-9.69079 22.23047,-21.65429 0,-11.9635 -9.98406,-21.65625 -22.23047,-21.65625 z m 0,2.31054 c 11.0323,0 19.91992,8.66535 19.91992,19.34571 0,10.68035 -8.88762,19.3457 -19.91992,19.3457 -11.0323,0 -19.91992,-8.66535 -19.91992,-19.3457 0,-10.68036 8.88762,-19.34571 19.91992,-19.34571 z"
         id="path1373" />
    </g>
    <g
       id="path1171-6-4-0-0-4-6"
       transform="matrix(2.0242487,0,0,2.0780156,-200.19942,-182.49581)">
      <path
         style="color:#000000;fill:#1069f0;stroke-width:2.30951;stroke-linecap:round;stroke-linejoin:round;-inkscape-stroke:none"
         d="m 213.64927,181.49956 a 21.07494,20.500181 0 0 1 -21.07494,20.50018 21.07494,20.500181 0 0 1 -21.07494,-20.50018 21.07494,20.500181 0 0 1 21.07494,-20.50018 21.07494,20.500181 0 0 1 21.07494,20.50018 z"
         id="path1377"
         name="Кислород"
         mpoint="Точка монтирования 3" />
      <path
         style="color:#000000;fill:#5854f2;stroke-linecap:round;stroke-linejoin:round;-inkscape-stroke:none"
         d="m 192.57422,159.84375 c -12.24641,0 -22.23047,9.69275 -22.23047,21.65625 0,11.9635 9.98406,21.6543 22.23047,21.6543 12.24641,0 22.23047,-9.6908 22.23047,-21.6543 0,-11.9635 -9.98406,-21.65625 -22.23047,-21.65625 z m 0,2.31055 c 11.0323,0 19.91992,8.66535 19.91992,19.3457 0,10.68035 -8.88762,19.3457 -19.91992,19.3457 -11.0323,0 -19.91992,-8.66535 -19.91992,-19.3457 0,-10.68035 8.88762,-19.3457 19.91992,-19.3457 z"
         id="path1379" />
    </g>
    <g
       id="path1171-6-4-0-0-4-6-2"
       transform="matrix(2.0243379,0,0,2.0780161,-200.62975,-331.07414)">
      <path
         style="color:#000000;fill:#1069f0;stroke-width:2.30951;stroke-linecap:round;stroke-linejoin:round;-inkscape-stroke:none"
         d="m 214.90209,365.66528 a 21.07494,20.500181 0 0 1 -21.07494,20.50018 21.07494,20.500181 0 0 1 -21.07494,-20.50018 21.07494,20.500181 0 0 1 21.07494,-20.50018 21.07494,20.500181 0 0 1 21.07494,20.50018 z"
         id="path1383"
         name="Озон"
         mpoint="Точка монтирования 3" />
      <path
         style="color:#000000;fill:#5854f2;stroke-linecap:round;stroke-linejoin:round;-inkscape-stroke:none"
         d="m 193.82812,344.00977 c -12.24641,0 -22.23046,9.69275 -22.23046,21.65625 0,11.96349 9.98405,21.65429 22.23046,21.65429 12.24642,0 22.22852,-9.6908 22.22852,-21.65429 0,-11.9635 -9.9821,-21.65625 -22.22852,-21.65625 z m 0,2.31054 c 11.03231,0 19.91993,8.66535 19.91993,19.34571 0,10.68035 -8.88762,19.34375 -19.91993,19.34375 -11.0323,0 -19.92187,-8.6634 -19.92187,-19.34375 0,-10.68036 8.88957,-19.34571 19.92187,-19.34571 z"
         id="path1385" />
    </g>
    <g
       id="path1171-6-4-0-0-4-6-2-6"
       transform="matrix(2.0242487,0,0,2.0781097,-61.062165,-657.21297)">
      <path
         style="color:#000000;fill:#1069f0;stroke-width:2.30951;stroke-linecap:round;stroke-linejoin:round;-inkscape-stroke:none"
         d="m 285.31725,618.73657 a 21.07494,20.500181 0 0 1 -21.07494,20.50018 21.07494,20.500181 0 0 1 -21.07494,-20.50018 21.07494,20.500181 0 0 1 21.07494,-20.50018 21.07494,20.500181 0 0 1 21.07494,20.50018 z"
         id="path1389"
         name="Кислород"
         mpoint="Точка монтирования 4" />
      <path
         style="color:#000000;fill:#5854f2;stroke-linecap:round;stroke-linejoin:round;-inkscape-stroke:none"
         d="m 264.24219,597.08203 c -12.24641,0 -22.23047,9.6908 -22.23047,21.6543 0,11.9635 9.98406,21.65429 22.23047,21.65429 12.24641,0 22.23047,-9.69079 22.23047,-21.65429 0,-11.9635 -9.98406,-21.6543 -22.23047,-21.6543 z m 0,2.30859 c 11.0323,0 19.91992,8.66535 19.91992,19.34571 0,10.68035 -8.88762,19.3457 -19.91992,19.3457 -11.0323,0 -19.91992,-8.66535 -19.91992,-19.3457 0,-10.68036 8.88762,-19.34571 19.91992,-19.34571 z"
         id="path1391" />
    </g>
    <g
       id="path1171-6-4-0-0-4-6-2-6-7"
       transform="matrix(2.0243379,0,0,2.0780156,-378.76343,-651.94957)">
      <path
         style="color:#000000;fill:#1069f0;stroke-width:2.30951;stroke-linecap:round;stroke-linejoin:round;-inkscape-stroke:none"
         d="m 362.9926,616.23096 a 21.07494,20.500181 0 0 1 -21.07494,20.50018 21.07494,20.500181 0 0 1 -21.07494,-20.50018 21.07494,20.500181 0 0 1 21.07494,-20.50018 21.07494,20.500181 0 0 1 21.07494,20.50018 z"
         id="path1395"
         name="Уровень ph"
         mpoint="Точка монтирования 4" />
      <path
         style="color:#000000;fill:#5854f2;stroke-linecap:round;stroke-linejoin:round;-inkscape-stroke:none"
         d="m 341.91797,594.57617 c -12.24641,0 -22.23047,9.6908 -22.23047,21.6543 0,11.9635 9.98406,21.65625 22.23047,21.65625 12.24641,0 22.22851,-9.69275 22.22851,-21.65625 0,-11.9635 -9.9821,-21.6543 -22.22851,-21.6543 z m 0,2.3086 c 11.0323,0 19.91992,8.66535 19.91992,19.3457 0,10.68035 -8.88762,19.3457 -19.91992,19.3457 -11.0323,0 -19.91992,-8.66535 -19.91992,-19.3457 0,-10.68035 8.88762,-19.3457 19.91992,-19.3457 z"
         id="path1397" />
    </g>
    <g
       id="path1171-6-4-0-0-4-6-2-6-7-5"
       transform="matrix(2.0242487,0,0,2.0781097,-577.20382,-697.80741)">
      <path
         style="color:#000000;fill:#1069f0;stroke-width:2.30951;stroke-linecap:round;stroke-linejoin:round;-inkscape-stroke:none"
         d="m 637.36199,637.52899 a 21.07494,20.500181 0 0 1 -21.07494,20.50018 21.07494,20.500181 0 0 1 -21.07494,-20.50018 21.07494,20.500181 0 0 1 21.07494,-20.50018 21.07494,20.500181 0 0 1 21.07494,20.50018 z"
         id="path1401"
         name="Освещенность"
         mpoint="Точка монтирования 4" />
      <path
         style="color:#000000;fill:#5854f2;stroke-linecap:round;stroke-linejoin:round;-inkscape-stroke:none"
         d="m 616.28711,615.875 c -12.24641,0 -22.23047,9.6908 -22.23047,21.6543 0,11.96349 9.98406,21.65429 22.23047,21.65429 12.24641,0 22.23047,-9.6908 22.23047,-21.65429 0,-11.9635 -9.98406,-21.6543 -22.23047,-21.6543 z m 0,2.30859 c 11.0323,0 19.91992,8.66535 19.91992,19.34571 0,10.68035 -8.88762,19.3457 -19.91992,19.3457 -11.0323,0 -19.91992,-8.66535 -19.91992,-19.3457 0,-10.68036 8.88762,-19.34571 19.91992,-19.34571 z"
         id="path1403" />
    </g>
    <g
       id="path1171-6-4-0-0-4-6-2-6-7-5-6"
       transform="matrix(2.0242487,0,0,2.0781097,-522.96268,-664.71466)">
      <path
         style="color:#000000;fill:#1069f0;stroke-width:2.30951;stroke-linecap:round;stroke-linejoin:round;-inkscape-stroke:none"
         d="m 609.79973,537.30273 a 21.07494,20.500181 0 0 1 -21.07494,20.50019 21.07494,20.500181 0 0 1 -21.07494,-20.50019 21.07494,20.500181 0 0 1 21.07494,-20.50018 21.07494,20.500181 0 0 1 21.07494,20.50018 z"
         id="path1407"
         name="Давление"
         mpoint="Точка монтирования 5" />
      <path
         style="color:#000000;fill:#5854f2;stroke-linecap:round;stroke-linejoin:round;-inkscape-stroke:none"
         d="m 588.72461,515.64844 c -12.24641,0 -22.23047,9.6908 -22.23047,21.65429 0,11.96351 9.98405,21.6543 22.23047,21.6543 12.24641,0 22.23047,-9.69079 22.23047,-21.6543 0,-11.96349 -9.98406,-21.65429 -22.23047,-21.65429 z m 0,2.30859 c 11.0323,0 19.91992,8.66535 19.91992,19.3457 10e-6,10.68036 -8.88762,19.34571 -19.91992,19.34571 -11.0323,0 -19.91993,-8.66535 -19.91992,-19.34571 0,-10.68035 8.88762,-19.3457 19.91992,-19.3457 z"
         id="path1409" />
    </g>
    <g
       id="path1171-6-4-0-0-4-6-2-6-7-5-6-9"
       transform="matrix(2.0242487,0,0,2.0780161,-609.53324,-106.24896)">
      <path
         style="color:#000000;fill:#1069f0;stroke-width:2.30951;stroke-linecap:round;stroke-linejoin:round;-inkscape-stroke:none"
         d="m 671.18828,152.68452 a 21.07494,20.500181 0 0 1 -21.07494,20.50019 21.07494,20.500181 0 0 1 -21.07494,-20.50019 21.07494,20.500181 0 0 1 21.07494,-20.50018 21.07494,20.500181 0 0 1 21.07494,20.50018 z"
         id="path1413"
         name="Углекислый газ"
         mpoint="Точка монтирования 5" />
      <path
         style="color:#000000;fill:#5854f2;stroke-linecap:round;stroke-linejoin:round;-inkscape-stroke:none"
         d="m 650.11328,131.0293 c -12.24641,0 -22.23047,9.6908 -22.23047,21.65429 0,11.96351 9.98406,21.65625 22.23047,21.65625 12.24642,0 22.23048,-9.69274 22.23047,-21.65625 0,-11.96349 -9.98406,-21.65429 -22.23047,-21.65429 z m 0,2.31054 c 11.0323,0 19.91992,8.6634 19.91992,19.34375 1e-5,10.68036 -8.88761,19.34571 -19.91992,19.34571 -11.0323,0 -19.91993,-8.66535 -19.91992,-19.34571 0,-10.68035 8.88762,-19.34375 19.91992,-19.34375 z"
         id="path1415" />
    </g>
    <g
       id="path1171-6-4-0-0-4-6-2-6-7-5-6-9-8"
       transform="matrix(2.0243379,0,0,2.0780158,-535.05456,-68.214417)">
      <path
         style="color:#000000;fill:#1069f0;stroke-width:2.30951;stroke-linecap:round;stroke-linejoin:round;-inkscape-stroke:none"
         d="M 611.05254,73.756332 A 21.07494,20.500181 0 0 1 589.9776,94.256514 21.07494,20.500181 0 0 1 568.90266,73.756332 21.07494,20.500181 0 0 1 589.9776,53.256151 21.07494,20.500181 0 0 1 611.05254,73.756332 Z"
         id="path1419"
         name="Потенциал"
         mpoint="Точка монтирования 5" />
      <path
         style="color:#000000;fill:#5854f2;stroke-linecap:round;stroke-linejoin:round;-inkscape-stroke:none"
         d="m 589.97852,52.101562 c -12.24642,10e-7 -22.23047,9.690799 -22.23047,21.654297 0,11.963499 9.98405,21.65625 22.23047,21.65625 12.24641,0 22.22851,-9.692751 22.22851,-21.65625 0,-11.963498 -9.9821,-21.654296 -22.22851,-21.654297 z m 0,2.308594 c 11.0323,0 19.91992,8.66535 19.91992,19.345703 0,10.680354 -8.88762,19.345703 -19.91992,19.345703 -11.03231,10e-7 -19.92188,-8.665349 -19.92188,-19.345703 0,-10.680353 8.88957,-19.345703 19.92188,-19.345703 z"
         id="path1421" />
    </g>
    <text
       xml:space="preserve"
       transform="scale(0.26458333)"
       id="text43804"
       style="font-family:Roboto;font-size:93.33333451px;line-height:1.25;letter-spacing:0px;word-spacing:0px;-inkscape-font-specification:'Roboto, Normal';white-space:pre;shape-inside:url(#rect43806);font-weight:normal;font-style:normal;font-stretch:normal;font-variant:normal;font-variant-ligatures:normal;font-variant-caps:normal;font-variant-numeric:normal;font-variant-east-asian:normal" />
    <text
       xml:space="preserve"
       style="font-size:24.69444444px;line-height:1.25;font-family:Roboto;-inkscape-font-specification:'Roboto, Normal';letter-spacing:0px;word-spacing:0px;white-space:pre;inline-size:47.5252;stroke-width:0.264583;font-weight:normal;font-style:normal;font-stretch:normal;font-variant:normal;font-variant-ligatures:normal;font-variant-caps:normal;font-variant-numeric:normal;font-variant-east-asian:normal"
       x="-115.16435"
       y="469.19351"
       id="text47662"><tspan
         x="-115.16435"
         y="469.19351"
         id="tspan123256"><tspan
           dx="0 17.242702 19.437229"
           id="tspan123254">CO2</tspan></tspan></text>
    <text
       xml:space="preserve"
       transform="scale(0.26458333)"
       id="text50674"
       style="font-family:Roboto;font-size:93.33333451px;line-height:1.25;letter-spacing:0px;word-spacing:0px;-inkscape-font-specification:'Roboto, Normal';white-space:pre;shape-inside:url(#rect50676);font-weight:normal;font-style:normal;font-stretch:normal;font-variant:normal;font-variant-ligatures:normal;font-variant-caps:normal;font-variant-numeric:normal;font-variant-east-asian:normal" />
    <text
       xml:space="preserve"
       transform="scale(0.26458333)"
       id="text54862"
       style="font-size:40px;line-height:1.25;font-family:Roboto;-inkscape-font-specification:Roboto;letter-spacing:0px;word-spacing:0px;white-space:pre;shape-inside:url(#rect54864)" />
    <text
       xml:space="preserve"
       transform="scale(0.26458333)"
       id="text59348"
       style="font-family:Roboto;font-size:40px;line-height:1.25;letter-spacing:0px;word-spacing:0px;-inkscape-font-specification:Roboto;white-space:pre;shape-inside:url(#rect59350)" />
    <g
       aria-label="CO2"
       transform="matrix(0.26458333,0,0,0.26458333,206.6553,80.221206)"
       id="text64128"
       style="font-size:40px;line-height:1.25;font-family:Roboto;-inkscape-font-specification:Roboto;letter-spacing:0px;word-spacing:0px;white-space:pre;shape-inside:url(#rect64130);fill:#ffffff">
      <path
         d="m -538.69814,1824.5305 v 13.8672 q -6.6406,-6.1849 -14.19267,-9.2448 -7.48696,-3.0599 -15.95048,-3.0599 -16.66662,0 -25.52077,10.2214 -8.85414,10.1562 -8.85414,29.427 0,19.2056 8.85414,29.427 8.85415,10.1562 25.52077,10.1562 8.46352,0 15.95048,-3.0599 7.55207,-3.0599 14.19267,-9.2448 v 13.737 q -6.90102,4.6875 -14.6484,7.0312 -7.68227,2.3438 -16.276,2.3438 -22.07025,0 -34.76553,-13.4766 -12.69528,-13.5416 -12.69528,-36.9139 0,-23.4375 12.69528,-36.914 12.69528,-13.5416 34.76553,-13.5416 8.72394,0 16.40621,2.3437 7.74738,2.2786 14.51819,6.901 z"
         style="font-size:133.333px;-inkscape-font-specification:'Roboto, Normal'"
         id="path122753" />
      <path
         d="m -478.93267,1825.9628 q -14.32288,0 -22.7864,10.6771 -8.39841,10.677 -8.39841,29.1015 0,18.3593 8.39841,29.0363 8.46352,10.6771 22.7864,10.6771 14.32288,0 22.65619,-10.6771 8.39842,-10.677 8.39842,-29.0363 0,-18.4245 -8.39842,-29.1015 -8.33331,-10.6771 -22.65619,-10.6771 z m 0,-10.677 q 20.44266,0 32.68221,13.7369 12.23955,13.6718 12.23955,36.7187 0,22.9817 -12.23955,36.7186 -12.23955,13.6719 -32.68221,13.6719 -20.50776,0 -32.81241,-13.6719 -12.23956,-13.6718 -12.23956,-36.7186 0,-23.0469 12.23956,-36.7187 12.30465,-13.7369 32.81241,-13.7369 z"
         style="font-size:133.333px;-inkscape-font-specification:'Roboto, Normal'"
         id="path122755" />
      <path
         d="m -400.93808,1903.1762 h 45.89832 v 11.0676 h -61.7186 v -11.0676 q 7.48696,-7.7474 20.37756,-20.7682 12.95569,-13.0859 16.276,-16.862 6.31508,-7.0963 8.78904,-11.9791 2.53905,-4.9479 2.53905,-9.7005 0,-7.7474 -5.46873,-12.6302 -5.40364,-4.8828 -14.12757,-4.8828 -6.18488,0 -13.08591,2.1485 -6.83592,2.1484 -14.6484,6.5104 v -13.2812 q 7.94269,-3.1901 14.84372,-4.8177 6.90102,-1.6276 12.63017,-1.6276 15.10413,0 24.08848,7.552 8.98435,7.5521 8.98435,20.1823 0,5.9895 -2.27864,11.3932 -2.21353,5.3385 -8.138,12.6301 -1.6276,1.8881 -10.35153,10.9375 -8.72394,8.9844 -24.60931,25.1953 z"
         style="font-size:133.333px;-inkscape-font-specification:'Roboto, Normal'"
         id="path122757" />
    </g>
    <g
       aria-label="CO2"
       transform="matrix(0.26458333,0,0,0.26458333,834.71084,-284.48052)"
       id="text64128-0"
       style="font-size:40px;line-height:1.25;font-family:Roboto;-inkscape-font-specification:Roboto;letter-spacing:0px;word-spacing:0px;white-space:pre;shape-inside:url(#rect64130-1);fill:#ffffff">
      <path
         d="m -538.69814,1824.5305 v 13.8672 q -6.6406,-6.1849 -14.19267,-9.2448 -7.48696,-3.0599 -15.95048,-3.0599 -16.66662,0 -25.52077,10.2214 -8.85414,10.1562 -8.85414,29.427 0,19.2056 8.85414,29.427 8.85415,10.1562 25.52077,10.1562 8.46352,0 15.95048,-3.0599 7.55207,-3.0599 14.19267,-9.2448 v 13.737 q -6.90102,4.6875 -14.6484,7.0312 -7.68227,2.3438 -16.276,2.3438 -22.07025,0 -34.76553,-13.4766 -12.69528,-13.5416 -12.69528,-36.9139 0,-23.4375 12.69528,-36.914 12.69528,-13.5416 34.76553,-13.5416 8.72394,0 16.40621,2.3437 7.74738,2.2786 14.51819,6.901 z"
         style="font-size:133.333px;-inkscape-font-specification:'Roboto, Normal'"
         id="path122938" />
      <path
         d="m -478.93267,1825.9628 q -14.32288,0 -22.7864,10.6771 -8.39841,10.677 -8.39841,29.1015 0,18.3593 8.39841,29.0363 8.46352,10.6771 22.7864,10.6771 14.32288,0 22.65619,-10.6771 8.39842,-10.677 8.39842,-29.0363 0,-18.4245 -8.39842,-29.1015 -8.33331,-10.6771 -22.65619,-10.6771 z m 0,-10.677 q 20.44266,0 32.68221,13.7369 12.23955,13.6718 12.23955,36.7187 0,22.9817 -12.23955,36.7186 -12.23955,13.6719 -32.68221,13.6719 -20.50776,0 -32.81241,-13.6719 -12.23956,-13.6718 -12.23956,-36.7186 0,-23.0469 12.23956,-36.7187 12.30465,-13.7369 32.81241,-13.7369 z"
         style="font-size:133.333px;-inkscape-font-specification:'Roboto, Normal'"
         id="path122940" />
      <path
         d="m -400.93808,1903.1762 h 45.89832 v 11.0676 h -61.7186 v -11.0676 q 7.48696,-7.7474 20.37756,-20.7682 12.95569,-13.0859 16.276,-16.862 6.31508,-7.0963 8.78904,-11.9791 2.53905,-4.9479 2.53905,-9.7005 0,-7.7474 -5.46873,-12.6302 -5.40364,-4.8828 -14.12757,-4.8828 -6.18488,0 -13.08591,2.1485 -6.83592,2.1484 -14.6484,6.5104 v -13.2812 q 7.94269,-3.1901 14.84372,-4.8177 6.90102,-1.6276 12.63017,-1.6276 15.10413,0 24.08848,7.552 8.98435,7.5521 8.98435,20.1823 0,5.9895 -2.27864,11.3932 -2.21353,5.3385 -8.138,12.6301 -1.6276,1.8881 -10.35153,10.9375 -8.72394,8.9844 -24.60931,25.1953 z"
         style="font-size:133.333px;-inkscape-font-specification:'Roboto, Normal'"
         id="path122942" />
    </g>
    <g
       aria-label="O2"
       transform="matrix(0.26458333,0,0,0.26458333,330.53866,-298.97345)"
       id="text64128-0-4"
       style="font-size:40px;line-height:1.25;font-family:Roboto;-inkscape-font-specification:Roboto;letter-spacing:0px;word-spacing:0px;white-space:pre;shape-inside:url(#rect64130-1-7);fill:#ffffff">
      <path
         d="m -572.03138,1825.9628 q -14.32288,0 -22.7864,10.6771 -8.39842,10.677 -8.39842,29.1015 0,18.3593 8.39842,29.0363 8.46352,10.6771 22.7864,10.6771 14.32288,0 22.65619,-10.6771 8.39841,-10.677 8.39841,-29.0363 0,-18.4245 -8.39841,-29.1015 -8.33331,-10.6771 -22.65619,-10.6771 z m 0,-10.677 q 20.44265,0 32.6822,13.7369 12.23956,13.6718 12.23956,36.7187 0,22.9817 -12.23956,36.7186 -12.23955,13.6719 -32.6822,13.6719 -20.50776,0 -32.81242,-13.6719 -12.23955,-13.6718 -12.23955,-36.7186 0,-23.0469 12.23955,-36.7187 12.30466,-13.7369 32.81242,-13.7369 z"
         style="font-size:133.333px;-inkscape-font-specification:'Roboto, Normal'"
         id="path122684" />
      <path
         d="m -494.03679,1903.1762 h 45.89832 v 11.0676 h -61.7186 v -11.0676 q 7.48696,-7.7474 20.37756,-20.7682 12.95569,-13.0859 16.276,-16.862 6.31508,-7.0963 8.78904,-11.9791 2.53905,-4.9479 2.53905,-9.7005 0,-7.7474 -5.46873,-12.6302 -5.40364,-4.8828 -14.12757,-4.8828 -6.18488,0 -13.08591,2.1485 -6.83592,2.1484 -14.6484,6.5104 v -13.2812 q 7.94269,-3.1901 14.84372,-4.8177 6.90102,-1.6276 12.63017,-1.6276 15.10413,0 24.08848,7.552 8.98435,7.5521 8.98435,20.1823 0,5.9895 -2.27864,11.3932 -2.21353,5.3385 -8.138,12.6301 -1.6276,1.8881 -10.35153,10.9375 -8.72394,8.9844 -24.60931,25.1953 z"
         style="font-size:133.333px;-inkscape-font-specification:'Roboto, Normal'"
         id="path122686" />
    </g>
    <g
       aria-label="O2"
       transform="matrix(0.26458333,0,0,0.26458333,614.74971,134.95354)"
       id="text64128-0-4-7"
       style="font-size:40px;line-height:1.25;font-family:Roboto;-inkscape-font-specification:Roboto;letter-spacing:0px;word-spacing:0px;white-space:pre;shape-inside:url(#rect64130-1-7-03);fill:#ffffff">
      <path
         d="m -572.03138,1825.9628 q -14.32288,0 -22.7864,10.6771 -8.39842,10.677 -8.39842,29.1015 0,18.3593 8.39842,29.0363 8.46352,10.6771 22.7864,10.6771 14.32288,0 22.65619,-10.6771 8.39841,-10.677 8.39841,-29.0363 0,-18.4245 -8.39841,-29.1015 -8.33331,-10.6771 -22.65619,-10.6771 z m 0,-10.677 q 20.44265,0 32.6822,13.7369 12.23956,13.6718 12.23956,36.7187 0,22.9817 -12.23956,36.7186 -12.23955,13.6719 -32.6822,13.6719 -20.50776,0 -32.81242,-13.6719 -12.23955,-13.6718 -12.23955,-36.7186 0,-23.0469 12.23955,-36.7187 12.30466,-13.7369 32.81242,-13.7369 z"
         style="font-size:133.333px;-inkscape-font-specification:'Roboto, Normal'"
         id="path122874" />
      <path
         d="m -494.03679,1903.1762 h 45.89832 v 11.0676 h -61.7186 v -11.0676 q 7.48696,-7.7474 20.37756,-20.7682 12.95569,-13.0859 16.276,-16.862 6.31508,-7.0963 8.78904,-11.9791 2.53905,-4.9479 2.53905,-9.7005 0,-7.7474 -5.46873,-12.6302 -5.40364,-4.8828 -14.12757,-4.8828 -6.18488,0 -13.08591,2.1485 -6.83592,2.1484 -14.6484,6.5104 v -13.2812 q 7.94269,-3.1901 14.84372,-4.8177 6.90102,-1.6276 12.63017,-1.6276 15.10413,0 24.08848,7.552 8.98435,7.5521 8.98435,20.1823 0,5.9895 -2.27864,11.3932 -2.21353,5.3385 -8.138,12.6301 -1.6276,1.8881 -10.35153,10.9375 -8.72394,8.9844 -24.60931,25.1953 z"
         style="font-size:133.333px;-inkscape-font-specification:'Roboto, Normal'"
         id="path122876" />
    </g>
    <g
       aria-label="O3"
       transform="matrix(0.26458333,0,0,0.26458333,332.30874,-64.851749)"
       id="text64128-0-4-3"
       style="font-size:40px;line-height:1.25;font-family:Roboto;-inkscape-font-specification:Roboto;letter-spacing:0px;word-spacing:0px;white-space:pre;shape-inside:url(#rect64130-1-7-0);fill:#ffffff">
      <path
         d="m -572.03138,1825.9628 q -14.32288,0 -22.7864,10.6771 -8.39842,10.677 -8.39842,29.1015 0,18.3593 8.39842,29.0363 8.46352,10.6771 22.7864,10.6771 14.32288,0 22.65619,-10.6771 8.39841,-10.677 8.39841,-29.0363 0,-18.4245 -8.39841,-29.1015 -8.33331,-10.6771 -22.65619,-10.6771 z m 0,-10.677 q 20.44265,0 32.6822,13.7369 12.23956,13.6718 12.23956,36.7187 0,22.9817 -12.23956,36.7186 -12.23955,13.6719 -32.6822,13.6719 -20.50776,0 -32.81242,-13.6719 -12.23955,-13.6718 -12.23955,-36.7186 0,-23.0469 12.23955,-36.7187 12.30466,-13.7369 32.81242,-13.7369 z"
         style="font-size:133.333px;-inkscape-font-specification:'Roboto, Normal'"
         id="path122730" />
      <path
         d="m -465.52124,1861.8351 q 9.44008,2.0182 14.7135,8.3984 5.33853,6.3802 5.33853,15.7552 0,14.388 -9.89581,22.2656 -9.89581,7.8776 -28.12493,7.8776 -6.11977,0 -12.63017,-1.237 -6.4453,-1.1719 -13.34632,-3.5807 v -12.6953 q 5.46873,3.1901 11.97913,4.8177 6.5104,1.6276 13.60674,1.6276 12.36976,0 18.81506,-4.8828 6.5104,-4.8828 6.5104,-14.1927 0,-8.5937 -6.05468,-13.4114 -5.98956,-4.8828 -16.73172,-4.8828 h -11.3281 v -10.8073 h 11.84893 q 9.70049,0 14.84371,-3.8411 5.14322,-3.9063 5.14322,-11.1979 0,-7.487 -5.33853,-11.4583 -5.27343,-4.0365 -15.16923,-4.0365 -5.40364,0 -11.58852,1.1719 -6.18488,1.1719 -13.60673,3.6458 v -11.7187 q 7.48696,-2.0833 13.99736,-3.125 6.5755,-1.0416 12.36976,-1.0416 14.97392,0 23.69785,6.8359 8.72394,6.7708 8.72394,18.3593 0,8.0729 -4.62238,13.6718 -4.62239,5.5339 -13.15101,7.6823 z"
         style="font-size:133.333px;-inkscape-font-specification:'Roboto, Normal'"
         id="path122732" />
    </g>
    <g
       aria-label="V"
       transform="matrix(0.26458333,0,0,0.26458333,285.91361,239.73417)"
       id="text64128-5"
       style="font-size:40px;line-height:1.25;font-family:Roboto;-inkscape-font-specification:Roboto;letter-spacing:0px;word-spacing:0px;white-space:pre;shape-inside:url(#rect64130-61);fill:#ffffff">
      <path
         d="m -586.41937,1914.2438 -37.10928,-97.2002 h 13.73695 l 30.79419,81.8357 30.85929,-81.8357 h 13.67184 l -37.04417,97.2002 z"
         style="font-size:133.333px;-inkscape-font-specification:'Roboto, Normal'"
         id="path123113" />
    </g>
    <g
       aria-label="V"
       transform="matrix(0.26458333,0,0,0.26458333,812.44944,-411.62949)"
       id="text64128-5-2"
       style="font-size:40px;line-height:1.25;font-family:Roboto;-inkscape-font-specification:Roboto;letter-spacing:0px;word-spacing:0px;white-space:pre;shape-inside:url(#rect64130-61-4);fill:#ffffff">
      <path
         d="m -586.41937,1914.2438 -37.10928,-97.2002 h 13.73695 l 30.79419,81.8357 30.85929,-81.8357 h 13.67184 l -37.04417,97.2002 z"
         style="font-size:133.333px;-inkscape-font-specification:'Roboto, Normal'"
         id="path122963" />
    </g>
    <g
       aria-label="mm"
       transform="matrix(0.26458333,0,0,0.26458333,671.15175,242.47642)"
       id="text64128-5-0"
       style="font-size:40px;line-height:1.25;font-family:Roboto;-inkscape-font-specification:Roboto;letter-spacing:0px;word-spacing:0px;white-space:pre;shape-inside:url(#rect64130-61-5);fill:#ffffff">
      <path
         d="m -555.23455,1855.3247 q 4.49217,-8.0729 10.74216,-11.914 6.24998,-3.8411 14.7135,-3.8411 11.3932,0 17.57808,8.0077 6.18488,7.9427 6.18488,22.6562 v 44.0103 h -12.04424 v -43.6196 q 0,-10.4818 -3.71093,-15.5599 -3.71092,-5.0781 -11.32809,-5.0781 -9.30987,0 -14.71351,6.1849 -5.40363,6.1849 -5.40363,16.8619 v 41.2108 h -12.04424 v -43.6196 q 0,-10.5469 -3.71093,-15.5599 -3.71092,-5.0781 -11.4583,-5.0781 -9.17966,0 -14.5833,6.25 -5.40363,6.1849 -5.40363,16.7968 v 41.2108 h -12.04424 v -72.9164 h 12.04424 v 11.3281 q 4.10155,-6.7058 9.83071,-9.8959 5.72915,-3.19 13.60673,-3.19 7.94269,0 13.47653,4.0364 5.59894,4.0364 8.26821,11.7187 z"
         style="font-size:133.333px;-inkscape-font-specification:'Roboto, Normal'"
         id="path122801" />
      <path
         d="m -425.35208,1855.3247 q 4.49218,-8.0729 10.74216,-11.914 6.24999,-3.8411 14.71351,-3.8411 11.3932,0 17.57808,8.0077 6.18488,7.9427 6.18488,22.6562 v 44.0103 h -12.04424 v -43.6196 q 0,-10.4818 -3.71093,-15.5599 -3.71093,-5.0781 -11.3281,-5.0781 -9.30987,0 -14.7135,6.1849 -5.40363,6.1849 -5.40363,16.8619 v 41.2108 h -12.04424 v -43.6196 q 0,-10.5469 -3.71093,-15.5599 -3.71093,-5.0781 -11.4583,-5.0781 -9.17967,0 -14.5833,6.25 -5.40363,6.1849 -5.40363,16.7968 v 41.2108 h -12.04424 v -72.9164 h 12.04424 v 11.3281 q 4.10155,-6.7058 9.8307,-9.8959 5.72915,-3.19 13.60674,-3.19 7.94269,0 13.47653,4.0364 5.59894,4.0364 8.2682,11.7187 z"
         style="font-size:133.333px;-inkscape-font-specification:'Roboto, Normal'"
         id="path122803" />
    </g>
    <g
       aria-label="mm"
       transform="matrix(0.26458333,0,0,0.26458333,799.54515,-44.738858)"
       id="text64128-5-0-9"
       style="font-size:40px;line-height:1.25;font-family:Roboto;-inkscape-font-specification:Roboto;letter-spacing:0px;word-spacing:0px;white-space:pre;shape-inside:url(#rect64130-61-5-6);fill:#ffffff">
      <path
         d="m -555.23455,1855.3247 q 4.49217,-8.0729 10.74216,-11.914 6.24998,-3.8411 14.7135,-3.8411 11.3932,0 17.57808,8.0077 6.18488,7.9427 6.18488,22.6562 v 44.0103 h -12.04424 v -43.6196 q 0,-10.4818 -3.71093,-15.5599 -3.71092,-5.0781 -11.32809,-5.0781 -9.30987,0 -14.71351,6.1849 -5.40363,6.1849 -5.40363,16.8619 v 41.2108 h -12.04424 v -43.6196 q 0,-10.5469 -3.71093,-15.5599 -3.71092,-5.0781 -11.4583,-5.0781 -9.17966,0 -14.5833,6.25 -5.40363,6.1849 -5.40363,16.7968 v 41.2108 h -12.04424 v -72.9164 h 12.04424 v 11.3281 q 4.10155,-6.7058 9.83071,-9.8959 5.72915,-3.19 13.60673,-3.19 7.94269,0 13.47653,4.0364 5.59894,4.0364 8.26821,11.7187 z"
         style="font-size:133.333px;-inkscape-font-specification:'Roboto, Normal'"
         id="path122915" />
      <path
         d="m -425.35208,1855.3247 q 4.49218,-8.0729 10.74216,-11.914 6.24999,-3.8411 14.71351,-3.8411 11.3932,0 17.57808,8.0077 6.18488,7.9427 6.18488,22.6562 v 44.0103 h -12.04424 v -43.6196 q 0,-10.4818 -3.71093,-15.5599 -3.71093,-5.0781 -11.3281,-5.0781 -9.30987,0 -14.7135,6.1849 -5.40363,6.1849 -5.40363,16.8619 v 41.2108 h -12.04424 v -43.6196 q 0,-10.5469 -3.71093,-15.5599 -3.71093,-5.0781 -11.4583,-5.0781 -9.17967,0 -14.5833,6.25 -5.40363,6.1849 -5.40363,16.7968 v 41.2108 h -12.04424 v -72.9164 h 12.04424 v 11.3281 q 4.10155,-6.7058 9.8307,-9.8959 5.72915,-3.19 13.60674,-3.19 7.94269,0 13.47653,4.0364 5.59894,4.0364 8.2682,11.7187 z"
         style="font-size:133.333px;-inkscape-font-specification:'Roboto, Normal'"
         id="path122917" />
    </g>
    <g
       aria-label="lux"
       transform="matrix(0.26458333,0,0,0.26458333,805.91005,245.66759)"
       id="text64128-5-0-1"
       style="font-size:40px;line-height:1.25;font-family:Roboto;-inkscape-font-specification:Roboto;letter-spacing:0px;word-spacing:0px;white-space:pre;shape-inside:url(#rect64130-61-5-8);fill:#ffffff">
      <path
         d="m -612.00524,1812.942 h 11.97914 v 101.3018 h -11.97914 z"
         style="font-size:133.333px;-inkscape-font-specification:'Roboto, Normal'"
         id="path122824" />
      <path
         d="m -576.19804,1885.4679 v -44.1405 h 11.97914 v 43.6847 q 0,10.3516 4.03645,15.5599 4.03644,5.1432 12.10934,5.1432 9.7005,0 15.29944,-6.1849 5.66405,-6.1848 5.66405,-16.8619 v -41.341 h 11.97913 v 72.9164 h -11.97913 v -11.1978 q -4.36197,6.6406 -10.15623,9.8958 -5.72915,3.1901 -13.34632,3.1901 -12.56507,0 -19.07547,-7.8125 -6.5104,-7.8125 -6.5104,-22.8515 z m 30.14315,-45.8983 z"
         style="font-size:133.333px;-inkscape-font-specification:'Roboto, Normal'"
         id="path122826" />
      <path
         d="m -429.84425,1841.3274 -26.36712,35.4816 27.7343,37.4348 h -14.12757 l -21.2239,-28.6457 -21.2239,28.6457 h -14.12757 l 28.32024,-38.1509 -25.91139,-34.7655 h 14.12756 l 19.33589,25.9765 19.33589,-25.9765 z"
         style="font-size:133.333px;-inkscape-font-specification:'Roboto, Normal'"
         id="path122828" />
    </g>
    <g
       aria-label="lux"
       transform="matrix(0.26458333,0,0,0.26458333,807.9617,133.72301)"
       id="text64128-5-0-1-2"
       style="font-size:40px;line-height:1.25;font-family:Roboto;-inkscape-font-specification:Roboto;letter-spacing:0px;word-spacing:0px;white-space:pre;shape-inside:url(#rect64130-61-5-8-2);fill:#ffffff">
      <path
         d="m -612.00524,1812.942 h 11.97914 v 101.3018 h -11.97914 z"
         style="font-size:133.333px;-inkscape-font-specification:'Roboto, Normal'"
         id="path122849" />
      <path
         d="m -576.19804,1885.4679 v -44.1405 h 11.97914 v 43.6847 q 0,10.3516 4.03645,15.5599 4.03644,5.1432 12.10934,5.1432 9.7005,0 15.29944,-6.1849 5.66405,-6.1848 5.66405,-16.8619 v -41.341 h 11.97913 v 72.9164 h -11.97913 v -11.1978 q -4.36197,6.6406 -10.15623,9.8958 -5.72915,3.1901 -13.34632,3.1901 -12.56507,0 -19.07547,-7.8125 -6.5104,-7.8125 -6.5104,-22.8515 z m 30.14315,-45.8983 z"
         style="font-size:133.333px;-inkscape-font-specification:'Roboto, Normal'"
         id="path122851" />
      <path
         d="m -429.84425,1841.3274 -26.36712,35.4816 27.7343,37.4348 h -14.12757 l -21.2239,-28.6457 -21.2239,28.6457 h -14.12757 l 28.32024,-38.1509 -25.91139,-34.7655 h 14.12756 l 19.33589,25.9765 19.33589,-25.9765 z"
         style="font-size:133.333px;-inkscape-font-specification:'Roboto, Normal'"
         id="path122853" />
    </g>
    <g
       aria-label="pH"
       transform="matrix(0.26458333,0,0,0.26458333,222.2887,-363.82909)"
       id="text64128-3"
       style="font-size:40px;line-height:1.25;font-family:Roboto;-inkscape-font-specification:Roboto;letter-spacing:0px;word-spacing:0px;white-space:pre;shape-inside:url(#rect64130-6);fill:#ffffff">
      <path
         d="m -600.41673,1903.3064 v 38.6717 h -12.04424 v -100.6507 h 12.04424 v 11.0676 q 3.77603,-6.5104 9.50519,-9.6354 5.79425,-3.19 13.80204,-3.19 13.28122,0 21.54943,10.5468 8.33331,10.5468 8.33331,27.7343 0,17.1875 -8.33331,27.7343 -8.26821,10.5469 -21.54943,10.5469 -8.00779,0 -13.80204,-3.125 -5.72916,-3.1901 -9.50519,-9.7005 z m 40.75511,-25.4557 q 0,-13.2161 -5.46874,-20.7031 -5.40363,-7.552 -14.90882,-7.552 -9.50518,0 -14.97392,7.552 -5.40363,7.487 -5.40363,20.7031 0,13.2161 5.40363,20.7682 5.46874,7.4869 14.97392,7.4869 9.50519,0 14.90882,-7.4869 5.46874,-7.5521 5.46874,-20.7682 z"
         style="font-size:133.333px;-inkscape-font-specification:'Roboto, Normal'"
         id="path122661" />
      <path
         d="m -526.84921,1817.0436 h 13.15101 v 39.8436 h 47.78634 v -39.8436 h 13.151 v 97.2002 h -13.151 v -46.2889 h -47.78634 v 46.2889 h -13.15101 z"
         style="font-size:133.333px;-inkscape-font-specification:'Roboto, Normal'"
         id="path122663" />
    </g>
    <g
       aria-label="pH"
       transform="matrix(0.26458333,0,0,0.26458333,454.31206,131.30175)"
       id="text64128-3-8"
       style="font-size:40px;line-height:1.25;font-family:Roboto;-inkscape-font-specification:Roboto;letter-spacing:0px;word-spacing:0px;white-space:pre;shape-inside:url(#rect64130-6-2);fill:#ffffff">
      <path
         d="m -600.41673,1903.3064 v 38.6717 h -12.04424 v -100.6507 h 12.04424 v 11.0676 q 3.77603,-6.5104 9.50519,-9.6354 5.79425,-3.19 13.80204,-3.19 13.28122,0 21.54943,10.5468 8.33331,10.5468 8.33331,27.7343 0,17.1875 -8.33331,27.7343 -8.26821,10.5469 -21.54943,10.5469 -8.00779,0 -13.80204,-3.125 -5.72916,-3.1901 -9.50519,-9.7005 z m 40.75511,-25.4557 q 0,-13.2161 -5.46874,-20.7031 -5.40363,-7.552 -14.90882,-7.552 -9.50518,0 -14.97392,7.552 -5.40363,7.487 -5.40363,20.7031 0,13.2161 5.40363,20.7682 5.46874,7.4869 14.97392,7.4869 9.50519,0 14.90882,-7.4869 5.46874,-7.5521 5.46874,-20.7682 z"
         style="font-size:133.333px;-inkscape-font-specification:'Roboto, Normal'"
         id="path122778" />
      <path
         d="m -526.84921,1817.0436 h 13.15101 v 39.8436 h 47.78634 v -39.8436 h 13.151 v 97.2002 h -13.151 v -46.2889 h -47.78634 v 46.2889 h -13.15101 z"
         style="font-size:133.333px;-inkscape-font-specification:'Roboto, Normal'"
         id="path122780" />
    </g>
    <g
       aria-label="°C"
       transform="matrix(0.26458333,0,0,0.26458333,224.78057,-157.87418)"
       id="text64128-7"
       style="font-size:40px;line-height:1.25;font-family:Roboto;-inkscape-font-specification:Roboto;letter-spacing:0px;word-spacing:0px;white-space:pre;shape-inside:url(#rect64130-0);fill:#ffffff">
      <path
         d="m -591.23706,1823.6842 q -5.20832,0 -8.78904,3.6458 -3.58072,3.5807 -3.58072,8.789 0,5.1433 3.58072,8.724 3.58072,3.5156 8.78904,3.5156 5.20832,0 8.78904,-3.5156 3.58072,-3.5807 3.58072,-8.724 0,-5.1432 -3.64583,-8.789 -3.58072,-3.6458 -8.72393,-3.6458 z m 0,-8.3984 q 4.16665,0 8.00779,1.6276 3.84113,1.5625 6.64061,4.5572 2.99478,2.9297 4.49217,6.6406 1.49739,3.711 1.49739,8.0078 0,8.5938 -6.05467,14.5833 -5.98957,5.9245 -14.7135,5.9245 -8.78904,0 -14.6484,-5.8594 -5.85936,-5.8593 -5.85936,-14.6484 0,-8.7239 5.98957,-14.7786 5.98956,-6.0546 14.6484,-6.0546 z"
         style="font-size:133.333px;-inkscape-font-specification:'Roboto, Normal'"
         id="path122707" />
      <path
         d="m -472.03164,1824.5305 v 13.8672 q -6.64061,-6.1849 -14.19267,-9.2448 -7.48696,-3.0599 -15.95048,-3.0599 -16.66663,0 -25.52077,10.2214 -8.85414,10.1562 -8.85414,29.427 0,19.2056 8.85414,29.427 8.85414,10.1562 25.52077,10.1562 8.46352,0 15.95048,-3.0599 7.55206,-3.0599 14.19267,-9.2448 v 13.737 q -6.90102,4.6875 -14.6484,7.0312 -7.68227,2.3438 -16.276,2.3438 -22.07026,0 -34.76554,-13.4766 -12.69528,-13.5416 -12.69528,-36.9139 0,-23.4375 12.69528,-36.914 12.69528,-13.5416 34.76554,-13.5416 8.72394,0 16.40621,2.3437 7.74737,2.2786 14.51819,6.901 z"
         style="font-size:133.333px;-inkscape-font-specification:'Roboto, Normal'"
         id="path122709" />
    </g>
  </g>
</svg>
